trial_1
version=1
nRows=8
nColumns=49
inDegrees=yes
endheader
time	/jointset/bb/crank_angle/value	/jointset/bb/crank_angle/speed	/jointset/spindle/pedal_angle_r/value	/jointset/spindle/pedal_angle_r/speed	/jointset/ground_pelvis/pelvis_tilt/value	/jointset/ground_pelvis/pelvis_tilt/speed	/jointset/ground_pelvis/pelvis_list/value	/jointset/ground_pelvis/pelvis_list/speed	/jointset/ground_pelvis/pelvis_rotation/value	/jointset/ground_pelvis/pelvis_rotation/speed	/jointset/ground_pelvis/pelvis_tx/value	/jointset/ground_pelvis/pelvis_tx/speed	/jointset/ground_pelvis/pelvis_ty/value	/jointset/ground_pelvis/pelvis_ty/speed	/jointset/ground_pelvis/pelvis_tz/value	/jointset/ground_pelvis/pelvis_tz/speed	/jointset/hip_r/hip_angle_r/value	/jointset/hip_r/hip_angle_r/speed	/jointset/hip_r/hip_adduction_r/value	/jointset/hip_r/hip_adduction_r/speed	/jointset/hip_r/hip_rotation_r/value	/jointset/hip_r/hip_rotation_r/speed	/jointset/knee_r/knee_angle_r/value	/jointset/knee_r/knee_angle_r/speed	/jointset/knee_r/tib_tx_r/value	/jointset/knee_r/tib_tx_r/speed	/jointset/knee_r/tib_ty_r/value	/jointset/knee_r/tib_ty_r/speed	/jointset/tib_pat_r/pat_angle_r/value	/jointset/tib_pat_r/pat_angle_r/speed	/jointset/tib_pat_r/pat_tx_r/value	/jointset/tib_pat_r/pat_tx_r/speed	/jointset/tib_pat_r/pat_ty_r/value	/jointset/tib_pat_r/pat_ty_r/speed	/jointset/ankle_r/ankle_angle_r/value	/jointset/ankle_r/ankle_angle_r/speed	/jointset/subtalar_r/subtalar_angle_r/value	/jointset/subtalar_r/subtalar_angle_r/speed	/jointset/mtp_r/mtp_angle_r/value	/jointset/mtp_r/mtp_angle_r/speed	/forceset/bifemlh_r/activation	/forceset/bifemlh_r/fiber_length	/forceset/bifemsh_r/activation	/forceset/bifemsh_r/fiber_length	/forceset/glut_max2_r/activation	/forceset/glut_max2_r/fiber_length	/forceset/vas_int_r/activation	/forceset/vas_int_r/fiber_length
      0.00000000	    -45.00000000	   -479.99997653	     48.09675860	    580.06117783	      0.00000000	     -0.00000000	      0.00000000	      0.00000000	      0.00000000	      0.00000000	     -0.10000000	     -0.00000000	     -0.05000000	     -0.00000000	     -0.00000000	     -0.00000000	     80.24948288	   -104.04642167	      4.21672837	      2.04397145	     -2.43898499	     20.93008128	   -100.70550911	    246.24757085	      0.00195044	      0.05326634	     -0.48964053	      0.08463351	     17.60940514	     -1.01434956	      0.02844763	      0.10442564	     -0.02321327	      0.01435960	     24.13199402	    -43.70209768	      0.00000000	      0.00000000	     -0.00000000	     -0.00000000	      0.05000000	      0.13808947	      0.05000000	      0.14772199	      0.05000000	      0.15399206	      0.05000000	      0.15355824
      0.00100000	    -45.47999998	   -479.99997653	     48.67664865	    579.71943447	     -0.00000000	     -0.00000000	      0.00000000	      0.00000000	      0.00000000	      0.00000000	     -0.10000000	     -0.00000000	     -0.05000000	     -0.00000000	     -0.00000000	     -0.00000000	     80.14464908	   -105.61945521	      4.21877071	      2.04066737	     -2.41804003	     20.95968721	   -100.45879029	    247.18816172	      0.00200356	      0.05298754	     -0.48955572	      0.08500057	     17.60838707	     -1.02174282	      0.02855213	      0.10457251	     -0.02319894	      0.01430690	     24.08843863	    -43.40795571	      0.00000000	      0.00000000	     -0.00000000	     -0.00000000	      0.04928705	      0.13808935	      0.04928705	      0.14772915	      0.04928705	      0.15398958	      0.04928705	      0.15354189
      0.00375921	    -46.80442290	   -479.99997653	     50.27493441	    578.79219210	     -0.00000000	     -0.00000000	      0.00000000	      0.00000000	      0.00000000	      0.00000000	     -0.10000000	     -0.00000000	     -0.05000000	     -0.00000000	     -0.00000000	     -0.00000000	     79.84728997	   -109.90639081	      4.22438723	      2.03007448	     -2.36009967	     21.03698296	    -99.77322607	    249.72456969	      0.00214867	      0.05218148	     -0.48931981	      0.08598918	     17.60554174	     -1.04018567	      0.02884119	      0.10494176	     -0.02315968	      0.01414804	     23.96980927	    -42.57459087	      0.00000000	      0.00000000	     -0.00000000	     -0.00000000	      0.04737861	      0.13808761	      0.04737861	      0.14784511	      0.04737861	      0.15395986	      0.04737861	      0.15333626
      0.00739130	    -48.54782363	   -479.99997653	     52.37499223	    577.60694316	     -0.00000000	     -0.00000000	      0.00000000	      0.00000000	      0.00000000	      0.00000000	     -0.10000000	     -0.00000000	     -0.05000000	     -0.00000000	     -0.00000000	     -0.00000000	     79.43803001	   -115.42872841	      4.23173055	      2.01290992	     -2.28352050	     21.12949433	    -98.86033386	    252.93309583	      0.00233615	      0.05104267	     -0.48900521	      0.08723597	     17.60172636	     -1.05984597	      0.02922311	      0.10534931	     -0.02310871	      0.01390893	     23.81723529	    -41.43152273	      0.00000000	      0.00000000	     -0.00000000	     -0.00000000	      0.04499183	      0.13808156	      0.04499183	      0.14811852	      0.04499183	      0.15388074	      0.04499183	      0.15290383
      0.00910496	    -49.37038213	   -479.99997653	     53.36434779	    577.06171325	     -0.00000000	      0.00000000	      0.00000000	      0.00000000	      0.00000000	      0.00000000	     -0.10000000	     -0.00000000	     -0.05000000	     -0.00000000	     -0.00000000	     -0.00000000	     79.23802836	   -117.98604937	      4.23517211	      2.00357458	     -2.24727687	     21.16974351	    -98.42563345	    254.39609744	      0.00242314	      0.05047610	     -0.48885523	      0.08780249	     17.59990366	     -1.06719949	      0.02940379	      0.10551151	     -0.02308498	      0.01378432	     23.74671083	    -40.87512684	      0.00000000	      0.00000000	     -0.00000000	     -0.00000000	      0.04391270	      0.13807699	      0.04391270	      0.14826801	      0.04391270	      0.15383155	      0.04391270	      0.15267714
      0.01216612	    -50.83973658	   -479.99997653	     55.12935944	    576.11008458	     -0.00000000	     -0.00000000	      0.00000000	      0.00000000	      0.00000000	      0.00000000	     -0.10000000	      0.00000000	     -0.05000000	     -0.00000000	     -0.00000000	     -0.00000000	     78.86995615	   -122.47658130	      4.24127753	      1.98498179	     -2.18236905	     21.23660932	    -97.64298409	    256.92932363	      0.00257605	      0.04941935	     -0.48858494	      0.08877946	     17.59662055	     -1.07710713	      0.02972716	      0.10575465	     -0.02304315	      0.01354298	     23.62313789	    -39.85570099	      0.00000000	      0.00000000	     -0.00000000	     -0.00000000	      0.04205615	      0.13806573	      0.04205615	      0.14851398	      0.04205615	      0.15372939	      0.04205615	      0.15227776
      0.01374590	    -51.59803335	   -479.99997653	     56.03910943	    575.63015838	     -0.00000000	     -0.00000000	      0.00000000	      0.00000000	      0.00000000	      0.00000000	     -0.10000000	      0.00000000	     -0.05000000	     -0.00000000	     -0.00000000	     -0.00000000	     78.67466639	   -124.75482013	      4.24440514	      1.97444702	     -2.14879419	     21.26873630	    -97.23608628	    258.19679052	      0.00265368	      0.04885237	     -0.48844430	      0.08926596	     17.59491609	     -1.08054203	      0.02989432	      0.10585731	     -0.02302186	      0.01340906	     23.56059857	    -39.31742508	      0.00000000	      0.00000000	     -0.00000000	     -0.00000000	      0.04113233	      0.13805826	      0.04113233	      0.14865515	      0.04113233	      0.15367073	      0.04113233	      0.15206992
      0.01699118	    -53.15576750	   -479.99997653	     57.90562050	    574.66807380	     -0.00000000	     -0.00000000	      0.00000000	      0.00000000	      0.00000000	      0.00000000	     -0.10000000	      0.00000000	     -0.05000000	     -0.00000000	     -0.00000000	     -0.00000000	     78.26231409	   -129.35058617	      4.25077519	      1.95085872	     -2.07967010	     21.33001614	    -96.39404682	    260.71623836	      0.00281027	      0.04764351	     -0.48815304	      0.09022727	     17.59140266	     -1.08386323	      0.03023814	      0.10602086	     -0.02297882	      0.01311403	     23.43482774	    -38.18725099	      0.00000000	      0.00000000	     -0.00000000	     -0.00000000	      0.03930434	      0.13803910	      0.03930434	      0.14892815	      0.03930434	      0.15353974	      0.03930434	      0.15163740
